HIERARCHY
ROOT Hips
{
	OFFSET 0.000000 35.082581 0.000000
	CHANNELS 6 Xposition Yposition Zposition Xrotation Yrotation Zrotation 
	JOINT Spine
	{
		OFFSET 0.000000 6.876099 0.125700
		CHANNELS 3 Xrotation Yrotation Zrotation
		JOINT Spine1
		{
			OFFSET 0.000000 5.730043 0.104720
			CHANNELS 3 Xrotation Yrotation Zrotation
			JOINT Spine1_split
			{
				OFFSET 0.000000 5.730043 0.104720
				CHANNELS 3 Xrotation Yrotation Zrotation
				JOINT Spine2
				{
					OFFSET 0.000000 5.730043 0.104720
					CHANNELS 3 Xrotation Yrotation Zrotation
					JOINT Neck
					{
						OFFSET 0.000000 10.314075 0.188496
						CHANNELS 3 Xrotation Yrotation Zrotation
						JOINT Head
						{
							OFFSET 0.000000 7.643700 -2.377400
							CHANNELS 3 Xrotation Yrotation Zrotation
							JOINT HeadTop_End
							{
								OFFSET 0.000000 43.788605 -13.619600
								CHANNELS 3 Xrotation Yrotation Zrotation
								End Site
								{
									OFFSET 0.000000 0.000000 0.000000
								}
							}
						}
					}
					JOINT LeftShoulder
					{
						OFFSET 2.196100 4.412489 0.087492
						CHANNELS 3 Xrotation Yrotation Zrotation
						JOINT LeftShoulder_split
						{
							OFFSET 2.196100 4.412489 0.087492
							CHANNELS 3 Xrotation Yrotation Zrotation
							JOINT LeftArm
							{
								OFFSET 8.771219 -2.981674 -0.026999
								CHANNELS 3 Xrotation Yrotation Zrotation
								JOINT LeftForeArm
								{
									OFFSET 8.512804 0.000000 -0.000000
									CHANNELS 3 Xrotation Yrotation Zrotation
									JOINT LeftHand
									{
										OFFSET 18.484802 0.000000 -0.000000
										CHANNELS 3 Xrotation Yrotation Zrotation
										JOINT LeftHandThumb1
										{
											OFFSET 2.499420 -1.158070 2.653252
											CHANNELS 3 Xrotation Yrotation Zrotation
											JOINT LeftHandThumb2
											{
												OFFSET 2.370079 -1.368366 1.368366
												CHANNELS 3 Xrotation Yrotation Zrotation
												JOINT LeftHandThumb3
												{
													OFFSET 2.676727 -1.545410 1.545409
													CHANNELS 3 Xrotation Yrotation Zrotation
													JOINT LeftHandThumb4
													{
														OFFSET 1.692226 -0.977005 0.977007
														CHANNELS 3 Xrotation Yrotation Zrotation
														End Site
														{
															OFFSET 0.000000 0.000000 0.000000
														}
													}
												}
											}
										}
										JOINT LeftHandIndex1
										{
											OFFSET 7.924831 -0.457527 2.345128
											CHANNELS 3 Xrotation Yrotation Zrotation
											JOINT LeftHandIndex2
											{
												OFFSET 3.643303 0.000000 0.000000
												CHANNELS 3 Xrotation Yrotation Zrotation
												JOINT LeftHandIndex3
												{
													OFFSET 3.810799 0.000000 0.000000
													CHANNELS 3 Xrotation Yrotation Zrotation
													JOINT LeftHandIndex4
													{
														OFFSET 2.403702 0.000000 0.000000
														CHANNELS 3 Xrotation Yrotation Zrotation
														End Site
														{
															OFFSET 0.000000 0.000000 0.000000
														}
													}
												}
											}
										}
										JOINT LeftHandMiddle1
										{
											OFFSET 8.563995 0.000000 -0.000000
											CHANNELS 3 Xrotation Yrotation Zrotation
											JOINT LeftHandMiddle2
											{
												OFFSET 3.861618 0.000000 0.000000
												CHANNELS 3 Xrotation Yrotation Zrotation
												JOINT LeftHandMiddle3
												{
													OFFSET 3.701603 0.000000 0.000000
													CHANNELS 3 Xrotation Yrotation Zrotation
													JOINT LeftHandMiddle4
													{
														OFFSET 2.322544 0.000000 0.000000
														CHANNELS 3 Xrotation Yrotation Zrotation
														End Site
														{
															OFFSET 0.000000 0.000000 0.000000
														}
													}
												}
											}
										}
										JOINT LeftHandRing1
										{
											OFFSET 8.426460 -0.424637 -3.286992
											CHANNELS 3 Xrotation Yrotation Zrotation
											JOINT LeftHandRing2
											{
												OFFSET 3.126408 0.000000 0.000000
												CHANNELS 3 Xrotation Yrotation Zrotation
												JOINT LeftHandRing3
												{
													OFFSET 3.085026 0.000000 0.000000
													CHANNELS 3 Xrotation Yrotation Zrotation
													JOINT LeftHandRing4
													{
														OFFSET 1.644005 0.000000 0.000000
														CHANNELS 3 Xrotation Yrotation Zrotation
														End Site
														{
															OFFSET 0.000000 0.000000 0.000000
														}
													}
												}
											}
										}
									}
								}
							}
						}
					}
					JOINT RightShoulder
					{
						OFFSET -2.196100 4.412496 0.070690
						CHANNELS 3 Xrotation Yrotation Zrotation
						JOINT RightShoulder_split
						{
							OFFSET -2.196100 4.412496 0.070690
							CHANNELS 3 Xrotation Yrotation Zrotation
							JOINT RightArm
							{
								OFFSET -8.771282 -2.981682 -0.094208
								CHANNELS 3 Xrotation Yrotation Zrotation
								JOINT RightForeArm
								{
									OFFSET -8.494598 0.000000 0.000000
									CHANNELS 3 Xrotation Yrotation Zrotation
									JOINT RightHand
									{
										OFFSET -18.483803 0.000000 0.000001
										CHANNELS 3 Xrotation Yrotation Zrotation
										JOINT RightHandThumb1
										{
											OFFSET -2.527351 -1.008072 2.575253
											CHANNELS 3 Xrotation Yrotation Zrotation
											JOINT RightHandThumb2
											{
												OFFSET -2.321518 -1.340328 1.340329
												CHANNELS 3 Xrotation Yrotation Zrotation
												JOINT RightHandThumb3
												{
													OFFSET -2.657753 -1.534454 1.534455
													CHANNELS 3 Xrotation Yrotation Zrotation
													JOINT RightHandThumb4
													{
														OFFSET -1.807510 -1.043568 1.043567
														CHANNELS 3 Xrotation Yrotation Zrotation
														End Site
														{
															OFFSET 0.000000 0.000000 0.000000
														}
													}
												}
											}
										}
										JOINT RightHandIndex1
										{
											OFFSET -8.811420 0.015533 2.887987
											CHANNELS 3 Xrotation Yrotation Zrotation
											JOINT RightHandIndex2
											{
												OFFSET -3.537502 0.000000 0.000000
												CHANNELS 3 Xrotation Yrotation Zrotation
												JOINT RightHandIndex3
												{
													OFFSET -3.356201 0.000000 0.000000
													CHANNELS 3 Xrotation Yrotation Zrotation
													JOINT RightHandIndex4
													{
														OFFSET -1.933098 0.000000 0.000000
														CHANNELS 3 Xrotation Yrotation Zrotation
														End Site
														{
															OFFSET 0.000000 0.000000 0.000000
														}
													}
												}
											}
										}
										JOINT RightHandMiddle1
										{
											OFFSET -8.178135 0.000000 0.000000
											CHANNELS 3 Xrotation Yrotation Zrotation
											JOINT RightHandMiddle2
											{
												OFFSET -3.901302 0.000000 0.000000
												CHANNELS 3 Xrotation Yrotation Zrotation
												JOINT RightHandMiddle3
												{
													OFFSET -3.909599 0.000000 0.000000
													CHANNELS 3 Xrotation Yrotation Zrotation
													JOINT RightHandMiddle4
													{
														OFFSET -2.376003 0.000000 0.000000
														CHANNELS 3 Xrotation Yrotation Zrotation
														End Site
														{
															OFFSET 0.000000 0.000000 0.000000
														}
													}
												}
											}
										}
										JOINT RightHandRing1
										{
											OFFSET -7.559013 0.014137 -2.865403
											CHANNELS 3 Xrotation Yrotation Zrotation
											JOINT RightHandRing2
											{
												OFFSET -3.449306 0.000000 0.000000
												CHANNELS 3 Xrotation Yrotation Zrotation
												JOINT RightHandRing3
												{
													OFFSET -3.362106 0.000000 0.000000
													CHANNELS 3 Xrotation Yrotation Zrotation
													JOINT RightHandRing4
													{
														OFFSET -2.076401 0.000000 0.000000
														CHANNELS 3 Xrotation Yrotation Zrotation
														End Site
														{
															OFFSET 0.000000 0.000000 0.000000
														}
													}
												}
											}
										}
									}
								}
							}
						}
					}
				}
			}
		}
	}
	JOINT LeftUpLeg
	{
		OFFSET 10.205400 -3.823500 0.155100
		CHANNELS 3 Xrotation Yrotation Zrotation
		JOINT LeftLeg
		{
			OFFSET 0.708757 -12.982077 0.567790
			CHANNELS 3 Xrotation Yrotation Zrotation
			JOINT LeftFoot
			{
				OFFSET -0.708756 -10.717838 -2.184338
				CHANNELS 3 Xrotation Yrotation Zrotation
				JOINT LeftToeBase
				{
					OFFSET 0.108149 -7.191104 7.560241
					CHANNELS 3 Xrotation Yrotation Zrotation
					JOINT LeftToe_End
					{
						OFFSET 0.070230 0.081724 4.490308
						CHANNELS 3 Xrotation Yrotation Zrotation
						End Site
						{
							OFFSET 0.000000 0.000000 0.000000
						}
					}
				}
			}
		}
	}
	JOINT RightUpLeg
	{
		OFFSET -10.205400 -3.823500 0.005500
		CHANNELS 3 Xrotation Yrotation Zrotation
		JOINT RightLeg
		{
			OFFSET -0.708756 -12.982134 0.610632
			CHANNELS 3 Xrotation Yrotation Zrotation
			JOINT RightFoot
			{
				OFFSET 0.708754 -10.717769 -1.945823
				CHANNELS 3 Xrotation Yrotation Zrotation
				JOINT RightToeBase
				{
					OFFSET -0.108140 -7.191069 7.372968
					CHANNELS 3 Xrotation Yrotation Zrotation
					JOINT RightToe_End
					{
						OFFSET -0.070227 0.081735 4.479403
						CHANNELS 3 Xrotation Yrotation Zrotation
						End Site
						{
							OFFSET 0.000000 0.000000 0.000000
						}
					}
				}
			}
		}
	}
}
MOTION
Frames: 5
Frame Time: 0.016667
0.101239 33.147579 -0.933588 1.892237 0.301107 -0.234421 2.071407 0.264369 0.909424 3.430437 -0.015269 0.185037 0.000000 0.000000 0.000000 3.430498 0.005499 0.178976 -3.527215 -0.012947 -0.020364 -2.723221 -0.263049 0.289011 0.000000 0.000000 0.000000 0.742832 8.952354 -13.053717 0.000000 0.000000 0.000000 10.740852 -6.252038 -54.033838 -0.000009 -33.005906 0.000001 3.135489 -1.542041 -4.245090 -3.935406 -5.157157 8.901459 21.369768 38.859115 0.033471 -0.468189 -2.423317 17.081262 0.000003 -0.000000 -0.000002 1.240183 5.550736 -31.144669 2.582830 4.855854 -55.996995 0.000004 -0.001528 0.014979 0.000001 0.000001 0.000002 2.320315 7.123383 -41.324714 3.978848 5.544435 -71.308036 0.000000 -0.000577 0.005639 0.000000 0.000000 -0.000000 2.315929 7.119638 -41.286065 3.978830 5.544429 -71.308036 -0.000002 -0.000573 0.005644 0.000000 0.000001 -0.000000 1.078064 -8.352862 11.371695 0.000000 0.000000 0.000000 3.407868 18.890976 61.317320 -0.000005 23.538789 0.000001 1.182693 -2.960230 -1.406672 -5.113525 0.222622 -17.981434 16.974272 -29.891288 7.722271 -6.335518 -28.130476 -4.848445 -0.000001 -0.000005 -0.000003 0.293265 -3.768010 14.855202 3.775960 -4.573218 79.081296 0.158027 1.204112 -14.952691 -0.000000 -0.000002 -0.000001 1.476688 -5.897261 31.989662 4.654527 -4.657173 89.967368 0.158028 1.204134 -14.952701 0.000000 0.000000 0.000000 1.427407 -5.817111 32.033092 4.654588 -4.657158 89.968058 0.158024 1.204130 -14.952688 0.000000 -0.000001 0.000000 -10.441640 -6.821109 14.640268 25.088823 -2.676318 -4.572713 -13.639101 16.410421 -10.555734 -0.022028 0.000003 -0.000003 0.000000 0.000001 -0.000000 -6.720703 -3.807092 -13.813680 24.380985 2.677203 1.610273 -17.441860 -13.754447 10.543649 0.109672 -0.000016 0.000005 0.000000 -0.000000 0.000000 
0.273774 33.109791 -0.921869 1.971050 0.193604 -0.223095 2.228806 0.132270 0.876258 3.366060 -0.047926 0.178463 0.000000 0.000000 0.000000 3.366261 -0.027679 0.173012 -3.461163 -0.005422 -0.020364 -2.503164 -0.228412 0.394053 0.000000 0.000000 0.000000 0.736161 8.634890 -13.051703 0.000000 0.000000 0.000000 10.465386 -6.468715 -54.238573 0.000008 -32.925415 0.000004 3.835506 -1.562237 -4.453601 -3.935426 -5.157157 8.901476 21.369782 38.859122 0.033452 -0.468211 -2.423324 17.081260 -0.000000 -0.000002 0.000001 1.240158 5.550751 -31.144665 2.582835 4.855855 -55.996988 0.000150 0.042011 -0.410016 0.000000 -0.000002 0.000001 2.320300 7.123391 -41.324714 3.979597 5.544691 -71.315918 0.000195 0.047581 -0.464338 0.000000 -0.000003 -0.000000 2.324867 7.126380 -41.393815 3.982362 5.545612 -71.344577 0.000811 0.097856 -0.954950 -0.000000 0.000001 -0.000000 1.102349 -8.042778 11.607333 0.000000 0.000000 0.000000 3.214950 18.780602 60.984375 0.000020 23.113688 -0.000007 2.062549 -2.669420 -0.892119 -5.113535 0.222638 -17.981433 16.974258 -29.891285 7.722249 -6.335525 -28.130472 -4.848416 0.000001 -0.000004 -0.000002 0.293258 -3.768016 14.855180 3.760207 -4.570163 78.883535 0.143305 1.147581 -14.235152 -0.000000 0.000001 0.000002 1.476672 -5.897266 31.989662 4.659806 -4.657181 90.032282 0.149957 1.173490 -14.563613 -0.000000 -0.000001 0.000000 1.436524 -5.825505 32.180518 4.654572 -4.657157 89.968051 0.142513 1.144479 -14.195904 0.000000 0.000000 -0.000000 -11.269693 -6.511571 14.386316 26.062272 -2.859483 -4.474436 -14.143098 15.381782 -10.295606 -0.014343 0.000001 -0.000003 -0.000000 0.000000 0.000000 -6.884944 -3.700820 -14.292955 24.393891 2.826217 1.649695 -17.280561 -13.804969 10.940846 0.103733 -0.000020 0.000000 0.000000 -0.000002 -0.000000 
0.447802 33.071812 -0.917422 2.046940 0.090906 -0.210449 2.392063 0.000017 0.837562 3.299833 -0.080446 0.171142 0.000000 0.000000 0.000000 3.300176 -0.060740 0.166296 -3.396148 0.002399 -0.020364 -2.286794 -0.182576 0.481419 0.000001 0.000000 -0.000000 0.729735 8.312041 -13.050103 0.000000 0.000000 0.000000 10.192954 -6.689428 -54.453051 -0.000007 -32.826555 -0.000014 4.533524 -1.587743 -4.670894 -3.935397 -5.157140 8.901473 21.369765 38.859128 0.033480 -0.468200 -2.423325 17.081272 -0.000001 -0.000000 0.000003 1.240171 5.550754 -31.144659 2.582844 4.855856 -55.996985 0.000632 0.086129 -0.840415 -0.000000 0.000002 0.000000 2.320313 7.123401 -41.324704 3.980453 5.544978 -71.324742 0.000796 0.096399 -0.940720 0.000000 -0.000000 -0.000000 2.334051 7.133228 -41.503750 3.985976 5.546830 -71.381829 0.003332 0.197792 -1.930543 -0.000001 0.000002 0.000000 1.124663 -7.724682 11.847095 0.000000 0.000000 0.000000 3.010273 18.678496 60.639779 -0.000009 22.673032 -0.000005 2.953365 -2.354776 -0.380935 -5.113535 0.222629 -17.981426 16.974253 -29.891274 7.722243 -6.335526 -28.130476 -4.848438 -0.000000 -0.000005 0.000003 0.293271 -3.768012 14.855197 3.744284 -4.567021 78.683800 0.129092 1.090045 -13.507502 0.000000 0.000000 0.000001 1.476679 -5.897264 31.989666 4.665317 -4.657168 90.100222 0.142061 1.142684 -14.173039 -0.000000 0.000001 -0.000000 1.445853 -5.834051 32.330929 4.654595 -4.657158 89.968092 0.127653 1.084046 -13.431506 -0.000000 0.000003 0.000000 -12.147834 -6.183416 14.140129 27.016458 -3.084682 -4.350277 -14.586313 14.273331 -10.050628 -0.007610 0.000003 0.000002 0.000000 0.000000 0.000000 -7.069108 -3.597515 -14.773913 24.417224 2.969951 1.682712 -17.106673 -13.848074 11.337713 0.092234 -0.000003 -0.000002 0.000000 -0.000002 -0.000000 
0.623039 33.033615 -0.918879 2.120424 -0.007821 -0.196953 2.560041 -0.132368 0.794580 3.232092 -0.112856 0.163210 0.000000 0.000000 0.000000 3.232567 -0.093704 0.158966 -3.332028 0.010478 -0.020364 -2.078847 -0.125606 0.557600 -0.000000 -0.000000 -0.000000 0.723534 7.984860 -13.048765 0.000000 0.000000 0.000000 9.926435 -6.917190 -54.675282 -0.000002 -32.712877 -0.000001 5.229937 -1.618799 -4.895257 -3.935421 -5.157162 8.901459 21.369768 38.859118 0.033481 -0.468206 -2.423319 17.081250 -0.000000 -0.000002 -0.000004 1.240155 5.550748 -31.144665 2.582842 4.855855 -55.997005 0.001451 0.130703 -1.275570 0.000001 0.000000 -0.000001 2.320311 7.123386 -41.324714 3.981372 5.545288 -71.334339 0.001812 0.145780 -1.422704 -0.000000 0.000000 -0.000000 2.343379 7.140165 -41.615591 3.989613 5.548051 -71.419641 0.007626 0.299026 -2.919250 0.000000 -0.000001 0.000001 1.144764 -7.400142 12.089755 0.000000 0.000000 0.000000 2.794417 18.583901 60.286562 0.000013 22.219845 -0.000010 3.851653 -2.017873 0.124929 -5.113525 0.222623 -17.981446 16.974260 -29.891285 7.722275 -6.335516 -28.130469 -4.848435 0.000002 -0.000002 0.000003 0.293270 -3.768013 14.855182 3.728257 -4.563790 78.482336 0.115461 1.031654 -12.771025 -0.000000 -0.000003 -0.000002 1.476685 -5.897271 31.989652 4.671027 -4.657150 90.170436 0.134349 1.111711 -13.781005 -0.000000 0.000001 -0.000001 1.455362 -5.842719 32.483929 4.654581 -4.657158 89.968065 0.113478 1.022847 -12.660255 0.000001 0.000003 -0.000001 -13.050470 -5.848681 13.926250 27.934383 -3.335735 -4.267798 -14.976513 13.098996 -9.783733 -0.002048 -0.000003 0.000000 0.000000 -0.000001 0.000000 -7.267783 -3.495855 -15.255960 24.444653 3.110227 1.711538 -16.920013 -13.885242 11.733545 0.074556 -0.000012 0.000000 0.000000 0.000000 -0.000000 
0.798891 32.995552 -0.925469 2.192028 -0.103500 -0.182934 2.733197 -0.264790 0.747382 3.162681 -0.145143 0.154605 0.000000 0.000000 0.000000 3.163290 -0.126561 0.150961 -3.268991 0.018849 -0.018577 -1.887780 -0.058102 0.630191 -0.000000 0.000000 -0.000000 0.717571 7.653005 -13.047670 0.000000 0.000000 0.000000 9.666110 -7.152681 -54.905507 0.000005 -32.583206 0.000008 5.924537 -1.655675 -5.127143 -3.935439 -5.157165 8.901437 21.369760 38.859111 0.033503 -0.468193 -2.423326 17.081251 -0.000002 -0.000001 0.000003 1.240174 5.550753 -31.144659 2.582820 4.855854 -55.997005 0.002631 0.175796 -1.715706 -0.000001 0.000000 0.000001 2.320299 7.123397 -41.324700 3.982388 5.545631 -71.344734 0.003271 0.195751 -1.910621 -0.000000 0.000000 0.000001 2.352906 7.147224 -41.729481 3.993324 5.549282 -71.458095 0.013744 0.401591 -3.921905 0.000001 0.000001 -0.000000 1.162526 -7.068620 12.335795 0.000000 0.000000 0.000000 2.566469 18.497479 59.924221 -0.000000 21.753109 -0.000008 4.758070 -1.657852 0.624854 -5.113532 0.222639 -17.981460 16.974265 -29.891298 7.722265 -6.335537 -28.130472 -4.848449 -0.000002 -0.000000 0.000001 0.293270 -3.768016 14.855183 3.712101 -4.560478 78.279118 0.102422 0.972338 -12.025190 -0.000001 0.000001 0.000001 1.476682 -5.897268 31.989645 4.676917 -4.657136 90.243048 0.126824 1.080568 -13.387698 -0.000000 -0.000001 -0.000000 1.465067 -5.851511 32.639753 4.654590 -4.657159 89.968058 0.099995 0.960937 -11.882040 0.000000 -0.000002 -0.000000 -13.963328 -5.510175 13.735172 28.819676 -3.579157 -4.216743 -15.318770 11.869304 -9.505389 -0.000024 -0.000003 0.000004 0.000000 -0.000001 -0.000000 -7.475136 -3.395650 -15.737195 24.466520 3.247671 1.737301 -16.717136 -13.919121 12.128211 0.047625 -0.000002 0.000008 0.000000 -0.000003 -0.000000 
